<?xml version="1.0" encoding="utf-8"?>
<svg version="1.1" xmlns:xlink="http://www.w3.org/1999/xlink" width="35px" height="45px" xmlns="http://www.w3.org/2000/svg">
  <g transform="matrix(1 0 0 1 -133 -477 )">
    <path d="M 19.6875 37.67578125  C 20.08246527777778 37.67578125  20.42426215277778 37.49023437500001  20.712890625 37.119140625  L 23.037109375 34.130859375  C 23.32573784722222 33.759765625  23.470052083333332 33.3203125  23.470052083333332 32.8125  C 23.470052083333332 32.3046875  23.32573784722222 31.865234375  23.037109375 31.494140625000004  L 16.041666666666664 22.5  L 23.037109375 13.505859375000002  C 23.32573784722222 13.134765624999996  23.470052083333332 12.695312499999996  23.470052083333332 12.187500000000002  C 23.470052083333332 11.679687499999996  23.32573784722222 11.240234374999996  23.037109375 10.869140625000002  L 20.712890625 7.880859375000002  C 20.42426215277778 7.5097656249999964  20.08246527777778 7.324218749999998  19.6875 7.324218749999998  C 19.29253472222222 7.324218749999998  18.95073784722222 7.5097656249999964  18.662109375 7.880859375000002  L 8.317057291666668 21.181640625  C 8.028428819444445 21.552734375  7.884114583333333 21.9921875  7.884114583333333 22.5  C 7.884114583333333 23.007812499999993  8.028428819444445 23.447265624999993  8.317057291666668 23.818359375  L 18.662109375 37.119140625  C 18.95073784722222 37.49023437500001  19.29253472222222 37.67578125  19.6875 37.67578125  Z M 32.65299479166667 11.2060546875  C 34.21766493055555 14.653320312499996  35 18.417968749999993  35 22.5  C 35 26.58203125  34.21766493055555 30.346679687499993  32.65299479166667 33.7939453125  C 31.088324652777782 37.2412109375  28.96538628472222 39.970703125  26.2841796875 41.982421875  C 23.602973090277782 43.99414062500001  20.674913194444446 45  17.5 45  C 14.325086805555557 45  11.397026909722223 43.99414062500001  8.7158203125 41.982421875  C 6.034613715277779 39.970703125  3.9116753472222228 37.2412109375  2.3470052083333335 33.7939453125  C 0.7823350694444443 30.346679687499993  0 26.58203125  0 22.5  C 0 18.417968749999993  0.7823350694444443 14.653320312499996  2.3470052083333335 11.2060546875  C 3.9116753472222228 7.758789062499999  6.034613715277779 5.029296874999996  8.7158203125 3.0175781249999982  C 11.397026909722223 1.005859374999996  14.325086805555557 0  17.5 0  C 20.674913194444446 0  23.602973090277782 1.005859374999996  26.2841796875 3.0175781249999982  C 28.96538628472222 5.029296874999996  31.088324652777782 7.758789062499999  32.65299479166667 11.2060546875  Z " fill-rule="nonzero" fill="#caf982" stroke="none" transform="matrix(1 0 0 1 133 477 )" />
  </g>
</svg>