<?xml version="1.0" encoding="utf-8"?>
<svg version="1.1" xmlns:xlink="http://www.w3.org/1999/xlink" width="39px" height="40px" xmlns="http://www.w3.org/2000/svg">
  <g transform="matrix(1 0 0 1 -820 -482 )">
    <path d="M 17.0625 33.489583333333336  C 17.502604166666668 33.489583333333336  17.883463541666668 33.32465277777778  18.205078125 32.994791666666664  L 29.732421875 21.171875  C 30.054036458333336 20.842013888888886  30.21484375 20.451388888888886  30.21484375 20  C 30.21484375 19.54861111111111  30.054036458333336 19.15798611111111  29.732421875 18.828125  L 18.205078125 7.005208333333335  C 17.883463541666668 6.675347222222219  17.502604166666668 6.510416666666665  17.0625 6.510416666666665  C 16.622395833333336 6.510416666666665  16.241536458333336 6.675347222222219  15.919921875 7.005208333333335  L 13.330078125 9.661458333333336  C 13.008463541666668 9.991319444444443  12.84765625 10.381944444444443  12.84765625 10.833333333333336  C 12.84765625 11.284722222222218  13.008463541666668 11.675347222222218  13.330078125 12.005208333333336  L 21.125 20  L 13.330078125 27.99479166666667  C 13.008463541666668 28.32465277777778  12.84765625 28.71527777777778  12.84765625 29.16666666666667  C 12.84765625 29.618055555555554  13.008463541666668 30.008680555555554  13.330078125 30.338541666666664  L 15.919921875 32.994791666666664  C 16.241536458333336 33.32465277777778  16.622395833333336 33.489583333333336  17.0625 33.489583333333336  Z M 36.384765625 9.9609375  C 38.12825520833333 13.025173611111107  39 16.37152777777777  39 20  C 39 23.62847222222222  38.12825520833333 26.974826388888886  36.384765625 30.0390625  C 34.64127604166667 33.103298611111114  32.275716145833336 35.529513888888886  29.2880859375 37.317708333333336  C 26.30045572916667 39.10590277777778  23.037760416666668 40  19.5 40  C 15.962239583333334 40  12.699544270833334 39.10590277777778  9.7119140625 37.317708333333336  C 6.724283854166667 35.529513888888886  4.358723958333334 33.103298611111114  2.615234375 30.0390625  C 0.8717447916666665 26.974826388888886  0 23.62847222222222  0 20  C 0 16.37152777777777  0.8717447916666665 13.025173611111107  2.615234375 9.9609375  C 4.358723958333334 6.896701388888888  6.724283854166667 4.470486111111107  9.7119140625 2.682291666666665  C 12.699544270833334 0.8940972222222188  15.962239583333334 0  19.5 0  C 23.037760416666668 0  26.30045572916667 0.8940972222222188  29.2880859375 2.682291666666665  C 32.275716145833336 4.470486111111107  34.64127604166667 6.896701388888888  36.384765625 9.9609375  Z " fill-rule="nonzero" fill="#caf982" stroke="none" transform="matrix(1 0 0 1 820 482 )" />
  </g>
</svg>